<?xml version="1.0" encoding="utf-8"?>
<!-- Generator: Adobe Illustrator 25.4.1, SVG Export Plug-In . SVG Version: 6.00 Build 0)  -->
<svg version="1.1" id="Layer_1" xmlns="http://www.w3.org/2000/svg" xmlns:xlink="http://www.w3.org/1999/xlink" x="0px" y="0px"
	 viewBox="0 0 19.8 14.2" style="enable-background:new 0 0 19.8 14.2;" xml:space="preserve">
<style type="text/css">
	.st0{fill:none;}
	.st1{fill:#E8710A;}
	.st2{fill:#F9AB00;}
</style>
<g>
	<path class="st0" d="M-0.3,1.7"/>
	<path class="st1" d="M2,12.1c-2.1-1.8-2-5.6,0-7.4C2.7,5.2,3.2,6,4,6.5C3.1,7.8,3.1,9,4,10.3C3.2,10.8,2.7,11.6,2,12.1z"/>
	<path class="st2" d="M10,12.4c-1.4-1.3-1.9-2.9-1.6-4.7c0.4-2.3,1.7-3.8,3.9-4.5c2-0.6,3.9-0.2,5.4,1.4c-0.7,0.6-1.3,1.2-1.9,1.9
		c-0.8-0.7-1.7-1-2.8-0.6c-1.9,0.6-2.4,2.5-1.2,4.4c-0.2,0.2-0.4,0.4-0.6,0.6C10.8,11.5,10.2,11.7,10,12.4z"/>
	<path class="st1" d="M15.7,6.5c0.6-0.7,1.2-1.3,1.9-1.9c2.1,2.2,2.1,5.5,0,7.7c-2.1,2.1-5.4,2.1-7.6,0.1c0.2-0.6,0.8-0.9,1.2-1.4
		c0.2-0.2,0.4-0.4,0.6-0.6c0.8,0.7,1.8,1,2.8,0.7C16.5,10.4,17,8.3,15.7,6.5z"/>
	<path class="st2" d="M3.9,6.6C3.2,6.1,2.7,5.3,2,4.8c1.7-1.9,4.4-2.3,6.6-1.1C9,4,9.2,4.2,8.8,4.6C8.7,4.7,8.6,4.9,8.5,5.1
		C8.3,5.5,8.1,5.9,7.8,6.2C7.4,6.4,7.1,5.9,6.7,5.8C5.6,5.6,4.7,5.8,3.9,6.6z"/>
	<path class="st2" d="M2,12.1c0.7-0.5,1.2-1.3,2-1.8c1,0.9,2.2,1.2,3.4,0.4c0.3-0.1,0.4,0,0.6,0.2c0.3,0.5,0.6,1,0.9,1.5
		c0.2,0.3,0.2,0.5-0.2,0.7C6.6,14.4,3.7,14,2,12.1z"/>
	<path class="st2" d="M-0.3,1.7"/>
</g>
</svg>
