<?xml version="1.0" encoding="utf-8"?>
<!-- Generator: Adobe Illustrator 25.4.1, SVG Export Plug-In . SVG Version: 6.00 Build 0)  -->
<svg version="1.1" id="Layer_1" xmlns="http://www.w3.org/2000/svg" xmlns:xlink="http://www.w3.org/1999/xlink" x="0px" y="0px"
	 viewBox="0 0 19.8 14.2" style="enable-background:new 0 0 19.8 14.2;" xml:space="preserve">
<style type="text/css">
	.st0{fill:none;}
	.st1{fill:#E8710A;}
	.st2{fill:#F9AB00;}
	.st3{enable-background:new    ;}
</style>
<g>
	<path class="st0" d="z"/>
	<path class="st1" d="M2.3,10.4c-2.1-1.8-2-5.6,0-7.4c0.7,0.5,1.2,1.3,2,1.8c-0.9,1.3-0.9,2.5,0,3.8C3.5,9.1,3,9.9,2.3,10.4z"/>
	<path class="st2" d="M10.3,10.7C8.9,9.4,8.4,7.8,8.7,6c0.4-2.3,1.7-3.8,3.9-4.5c2-0.6,3.9-0.2,5.4,1.4c-0.7,0.6-1.3,1.2-1.9,1.9
		c-0.8-0.7-1.7-1-2.8-0.6c-1.9,0.6-2.4,2.5-1.2,4.4c-0.2,0.2-0.4,0.4-0.6,0.6C11.1,9.8,10.5,10,10.3,10.7z"/>
	<path class="st1" d="M16,4.8c0.6-0.7,1.2-1.3,1.9-1.9c2.1,2.2,2.1,5.5,0,7.7c-2.1,2.1-5.4,2.1-7.6,0.1c0.2-0.6,0.8-0.9,1.2-1.4
		c0.2-0.2,0.4-0.4,0.6-0.6c0.8,0.7,1.8,1,2.8,0.7C16.8,8.7,17.3,6.6,16,4.8z"/>
	<path class="st2" d="M4.2,4.9C3.5,4.4,3,3.6,2.3,3.1C4,1.2,6.7,0.8,8.9,2c0.4,0.3,0.6,0.5,0.2,0.9C9,3,8.9,3.2,8.8,3.4
		C8.6,3.8,8.4,4.2,8.1,4.5C7.7,4.7,7.4,4.2,7,4.1C5.9,3.9,5,4.1,4.2,4.9z"/>
	<path class="st2" d="M2.3,10.4c0.7-0.5,1.2-1.3,2-1.8C5.3,9.5,6.5,9.8,7.7,9C8,8.9,8.1,9,8.3,9.2c0.3,0.5,0.6,1,0.9,1.5
		C9.4,11,9.4,11.2,9,11.4C6.9,12.7,4,12.3,2.3,10.4z"/>
	<path class="st0" d="z"/>
	<g class="st3">
	</g>
</g>
</svg>
